# xmcd CD database file
#
# Track frame offsets:
#	150
#	22290
#	38510
#	42670
#	56605
#
# Disc length: 1141 seconds
#
# Revision: 0
# Processed by: cddbd v1.5.1PL0 Copyright (c) Steve Scherf et al.
# Submitted via: CDex 1.40Release
#
DISCID=40047305
DTITLE=Dummy System - Warmtone
DYEAR=2000
DGENRE=
TTITLE0=Monster
TTITLE1=Treasure　Hunter
TTITLE2=Bat　Friends
TTITLE3=Nark？
TTITLE4=The　New　Year
EXTD=YEAR: 2000
EXTT0=
EXTT1=
EXTT2=
EXTT3=
EXTT4=
PLAYORDER=
